<svg width="16" height="16" viewBox="0 0 16 16" fill="none" xmlns="http://www.w3.org/2000/svg">
<path d="M6.29626 8.48693C6.29626 7.49088 7.05944 6.6814 7.99852 6.6814C8.93759 6.6814 9.70077 7.49088 9.70077 8.48693C9.70077 9.17942 9.33111 9.78021 8.79151 10.0838C8.52718 9.55254 8.26384 9.02026 8.0015 8.48693C7.73717 9.02026 7.47283 9.55254 7.2085 10.0838C6.66891 9.78337 6.29626 9.17942 6.29626 8.48693Z" fill="#0027DC"/>
<path d="M4.43301 8.48689C4.43301 6.39677 6.03092 4.70508 7.9985 4.70508C9.96906 4.70508 11.564 6.39677 11.564 8.48689C11.564 9.94144 10.7919 11.1999 9.65604 11.8323C9.36786 11.2505 9.07968 10.6677 8.7915 10.0837C9.33109 9.78017 9.70076 9.17938 9.70076 8.48689C9.70076 7.49084 8.93757 6.68136 7.9985 6.68136C7.05943 6.68136 6.29625 7.49084 6.29625 8.48689C6.29625 9.17938 6.6689 9.78333 7.20849 10.0837C6.92031 10.6677 6.63213 11.2516 6.34395 11.8355C5.20812 11.2031 4.43301 9.94144 4.43301 8.48689Z" fill="#0053DC"/>
<path d="M2.21504 8.48693C2.21504 5.10353 4.81165 2.35254 7.99853 2.35254C11.1884 2.35254 13.782 5.10353 13.782 8.48693C13.782 10.8395 12.524 12.8853 10.6876 13.913C10.3437 13.2216 9.9999 12.528 9.65607 11.8324C10.7919 11.2 11.564 9.94147 11.564 8.48693C11.564 6.39681 9.9691 4.70511 7.99853 4.70511C6.03095 4.70511 4.43305 6.39681 4.43305 8.48693C4.43305 9.94147 5.20815 11.2031 6.34398 11.8355C6.00015 12.5291 5.65632 13.2226 5.31249 13.9162C3.47311 12.8885 2.21504 10.8395 2.21504 8.48693Z" fill="#00A5FF"/>
<path d="M16 8.48695C16 11.7439 14.262 14.5771 11.719 15.9968C11.3752 15.3033 11.0314 14.6087 10.6875 13.913C12.5239 12.8854 13.782 10.8395 13.782 8.48695C13.782 5.10355 11.1884 2.35257 7.9985 2.35257C4.81162 2.35257 2.21501 5.10355 2.21501 8.48695C2.21501 10.8395 3.47308 12.8885 5.31246 13.9162C4.96863 14.6098 4.6258 15.3043 4.28396 16C1.73803 14.5771 0 11.7439 0 8.48695C0 3.80711 3.58934 0 7.9985 0C12.4107 0 16 3.80711 16 8.48695V8.48695Z" fill="#CEF3FC"/>
</svg>
